HIERARCHY
ROOT Hips
{
	OFFSET 0.000000 0.000000 0.000000
	CHANNELS 6 Xposition Yposition Zposition Zrotation Yrotation Xrotation 
	JOINT LHipJoint
	{
		OFFSET 0.000000 0.000000 0.000000
		CHANNELS 3 Zrotation Yrotation Xrotation
		JOINT LeftUpLeg
		{
			OFFSET 1.363060 -1.794630 0.839290
			CHANNELS 3 Zrotation Yrotation Xrotation
			JOINT LeftLeg
			{
				OFFSET 2.448110 -6.726130 0.000000
				CHANNELS 3 Zrotation Yrotation Xrotation
				JOINT LeftFoot
				{
					OFFSET 2.562200 -7.039590 0.000000
					CHANNELS 3 Zrotation Yrotation Xrotation
					JOINT LeftToeBase
					{
						OFFSET 0.157640 -0.433110 2.322550
						CHANNELS 3 Zrotation Yrotation Xrotation
						End Site
						{
							OFFSET 0.000000 0.000000 0.000000
						}
					}
				}
			}
		}
	}
	JOINT RHipJoint
	{
		OFFSET 0.000000 0.000000 0.000000
		CHANNELS 3 Zrotation Yrotation Xrotation
		JOINT RightUpLeg
		{
			OFFSET -1.305520 -1.794630 0.839290
			CHANNELS 3 Zrotation Yrotation Xrotation
			JOINT RightLeg
			{
				OFFSET -2.542530 -6.985550 0.000000
				CHANNELS 3 Zrotation Yrotation Xrotation
				JOINT RightFoot
				{
					OFFSET -2.568260 -7.056230 0.000000
					CHANNELS 3 Zrotation Yrotation Xrotation
					JOINT RightToeBase
					{
						OFFSET -0.164730 -0.452590 2.363150
						CHANNELS 3 Zrotation Yrotation Xrotation
						End Site
						{
							OFFSET 0.000000 0.000000 0.000000
						}
					}
				}
			}
		}
	}
	JOINT LowerBack
	{
		OFFSET 0.000000 0.000000 0.000000
		CHANNELS 3 Zrotation Yrotation Xrotation
		JOINT Spine
		{
			OFFSET 0.028270 2.035590 -0.193380
			CHANNELS 3 Zrotation Yrotation Xrotation
			JOINT Spine1
			{
				OFFSET 0.056720 2.048850 -0.042750
				CHANNELS 3 Zrotation Yrotation Xrotation
				JOINT Neck
				{
					OFFSET 0.000000 0.000000 0.000000
					CHANNELS 3 Zrotation Yrotation Xrotation
					JOINT Neck1
					{
						OFFSET -0.054170 1.746240 0.172020
						CHANNELS 3 Zrotation Yrotation Xrotation
						JOINT Head
						{
							OFFSET 0.104070 1.761360 -0.123970
							CHANNELS 3 Zrotation Yrotation Xrotation
							End Site
							{
								OFFSET 0.000000 0.000000 0.000000
							}
						}
					}
				}
				JOINT LeftShoulder
				{
					OFFSET 0.000000 0.000000 0.000000
					CHANNELS 3 Zrotation Yrotation Xrotation
					JOINT LeftArm
					{
						OFFSET 3.362410 1.200890 -0.311210
						CHANNELS 3 Zrotation Yrotation Xrotation
						JOINT LeftForeArm
						{
							OFFSET 4.983000 -0.000000 -0.000000
							CHANNELS 3 Zrotation Yrotation Xrotation
							JOINT LeftHand
							{
								OFFSET 3.483560 -0.000000 -0.000000
								CHANNELS 3 Zrotation Yrotation Xrotation
								JOINT LeftFingerBase
								{
									OFFSET 0.000000 0.000000 0.000000
									CHANNELS 3 Zrotation Yrotation Xrotation
									JOINT LeftHandIndex1
									{
										OFFSET 0.715260 -0.000000 -0.000000
										CHANNELS 3 Zrotation Yrotation Xrotation
										End Site
										{
											OFFSET 0.000000 0.000000 0.000000
										}
									}
								}
								JOINT LThumb
								{
									OFFSET 0.000000 0.000000 0.000000
									CHANNELS 3 Zrotation Yrotation Xrotation
									End Site
									{
										OFFSET 0.000000 0.000000 0.000000
									}
								}
							}
						}
					}
				}
				JOINT RightShoulder
				{
					OFFSET 0.000000 0.000000 0.000000
					CHANNELS 3 Zrotation Yrotation Xrotation
					JOINT RightArm
					{
						OFFSET -3.136600 1.374050 -0.404650
						CHANNELS 3 Zrotation Yrotation Xrotation
						JOINT RightForeArm
						{
							OFFSET -5.241900 -0.000000 -0.000000
							CHANNELS 3 Zrotation Yrotation Xrotation
							JOINT RightHand
							{
								OFFSET -3.444170 -0.000000 -0.000000
								CHANNELS 3 Zrotation Yrotation Xrotation
								JOINT RightFingerBase
								{
									OFFSET 0.000000 0.000000 0.000000
									CHANNELS 3 Zrotation Yrotation Xrotation
									JOINT RightHandIndex1
									{
										OFFSET -0.622530 -0.000000 -0.000000
										CHANNELS 3 Zrotation Yrotation Xrotation
										End Site
										{
											OFFSET 0.000000 0.000000 0.000000
										}
									}
								}
								JOINT RThumb
								{
									OFFSET 0.000000 0.000000 0.000000
									CHANNELS 3 Zrotation Yrotation Xrotation
									End Site
									{
										OFFSET 0.000000 0.000000 0.000000
									}
								}
							}
						}
					}
				}
			}
		}
	}
}
MOTION
Frames: 10
Frame Time: 0.008333
8.845943 15.670452 1.922217 2.715660 39.428691 23.028396 -12.103739 2.151032 0.827276 1.009402 5.831249 -38.432731 3.070649 4.606463 88.809500 2.177417 10.526313 8.863931 2.278001 0.000000 -37.774900 8.336018 -1.567724 6.244150 20.591873 18.150514 -31.613805 2.737663 -2.269251 48.578455 -2.182695 4.487319 -38.071403 -179.950900 0.000000 -29.988200 1.843747 -2.269203 -9.178243 -0.363769 -2.971114 -4.821512 -8.433386 -3.001835 -2.074270 12.412518 -6.969285 -6.677779 -3.550954 -0.284296 0.293141 0.000000 0.000000 0.000000 -1.300729 8.638548 0.431457 -71.824309 4.549525 20.889834 179.698722 -85.010114 179.866231 24.677034 -11.316010 -2.646548 -0.440161 0.572394 -0.000000 0.000000 0.000000 0.000000 0.000000 0.000000 0.000000 9.257208 -1.167391 -2.579713 79.544995 12.099153 19.273160 -179.864400 63.277438 179.831850 -14.651578 35.888125 -5.068552 0.217736 -1.508847 -0.000000 0.000000 0.000000 0.000000 0.000000 0.000000 0.000000 
8.977836 15.719383 2.014780 2.722059 38.773641 23.313086 -11.980601 1.871561 1.098149 1.295494 4.295966 -39.771950 3.044552 4.526855 88.259720 2.149653 10.703385 7.217155 2.115900 0.000001 -35.723800 8.442079 -1.591372 6.054033 20.128857 17.748646 -30.595795 2.834418 -2.151766 47.398947 -1.975532 5.412155 -37.571327 179.619700 0.000000 -29.247400 1.663069 -1.853055 -9.111202 -0.480625 -2.534514 -4.887629 -8.517962 -2.556320 -2.376872 12.244855 -5.761441 -6.385357 -3.657720 -0.294351 0.356587 0.000000 0.000000 0.000000 -1.011531 9.075597 0.566244 -70.997595 5.927546 20.522954 179.726333 -84.361276 179.869135 24.855402 -11.410339 -2.684714 -0.437297 0.561428 -0.000000 0.000000 0.000000 0.000000 0.000000 0.000000 0.000000 9.487900 0.412480 -2.604844 80.659309 13.276795 19.818935 -179.777460 63.743044 179.826279 -14.885922 36.266006 -5.207591 0.216801 -1.525305 -0.000000 0.000000 0.000000 0.000000 0.000000 0.000000 0.000000 
9.111726 15.783534 2.115368 2.772849 38.161830 23.625734 -11.830771 1.601398 1.378593 1.544951 2.876497 -41.038066 2.970050 4.415998 87.331497 2.153078 11.082543 5.736002 2.014700 0.000000 -33.838000 8.559089 -1.631411 5.863420 19.611854 17.225047 -29.501165 2.931408 -2.012286 45.955817 -1.743115 6.346199 -36.827677 179.196801 0.000000 -28.309100 1.419288 -1.423704 -9.072107 -0.602772 -2.079894 -4.956949 -8.569003 -2.093170 -2.660326 12.064022 -4.695609 -6.142078 -3.744046 -0.302464 0.407050 0.000000 0.000000 0.000000 -0.716740 9.515582 0.684031 -70.141293 7.248605 20.329714 179.754838 -83.680112 179.872366 24.942007 -11.581147 -2.731141 -0.434959 0.553473 -0.000000 0.000000 0.000000 0.000000 0.000000 0.000000 0.000000 9.658340 1.859511 -2.605323 81.585584 14.417609 20.510701 -179.713521 64.144832 179.822232 -15.089222 36.644613 -5.338493 0.217699 -1.543075 -0.000000 0.000000 0.000000 0.000000 0.000000 0.000000 0.000000 
9.248485 15.862321 2.224286 2.850083 37.588642 23.957538 -11.658472 1.342945 1.665859 1.753823 1.597022 -42.227799 2.852771 4.275594 86.029275 2.186495 11.629803 4.435662 1.959800 0.000000 -32.195500 8.683017 -1.689224 5.682471 19.055744 16.600879 -28.342607 3.022873 -1.852968 44.264649 -1.491822 7.242074 -35.825010 178.812200 0.000000 -27.299400 1.124890 -0.982466 -9.072134 -0.728578 -1.610781 -5.028725 -8.592153 -1.615411 -2.910390 11.880255 -3.796077 -5.958698 -3.811327 -0.308743 0.442051 0.000000 0.000000 0.000000 -0.424159 9.967086 0.778915 -69.261060 8.499891 20.280483 179.783376 -82.985212 179.875973 24.953224 -11.824711 -2.786433 -0.433181 0.548059 -0.000000 0.000000 0.000000 0.000000 0.000000 0.000000 0.000000 9.780266 3.144728 -2.580593 82.337945 15.528188 21.359480 -179.677669 64.490008 179.820201 -15.231841 37.018642 -5.449454 0.220174 -1.561970 -0.000000 0.000000 0.000000 0.000000 0.000000 0.000000 0.000000 
9.388106 15.955359 2.341546 2.958118 37.052758 24.300632 -11.463846 1.101816 1.954540 1.897840 0.459972 -43.314861 2.698371 4.106155 84.350704 2.246771 12.308745 3.315310 1.940300 0.000000 -30.827399 8.818804 -1.763757 5.510076 18.457527 15.870502 -27.117765 3.103435 -1.676622 42.341206 -1.223766 8.077001 -34.546563 178.485100 0.000001 -26.357500 0.774396 -0.536893 -9.105932 -0.860111 -1.133843 -5.100713 -8.595007 -1.129364 -3.121247 11.707539 -3.079614 -5.836237 -3.863877 -0.313564 0.461491 0.000000 0.000000 0.000000 -0.140928 10.410295 0.847289 -68.359276 9.699595 20.317570 179.811023 -82.274483 179.879893 24.901342 -12.133549 -2.849801 -0.431688 0.544649 -0.000000 0.000000 0.000000 0.000000 0.000000 0.000000 0.000000 9.885473 4.243765 -2.525714 82.933666 16.620141 22.374615 -179.674955 64.799740 179.820694 -15.293701 37.380209 -5.530877 0.224242 -1.581515 -0.000000 0.000000 0.000000 0.000000 0.000000 0.000000 0.000000 
9.530995 16.061557 2.466883 3.065576 36.551381 24.637519 -11.254618 0.879076 2.239496 1.994595 -0.516141 -44.291363 2.514452 3.911976 82.302114 2.326720 13.056527 2.360773 1.943100 -0.000000 -29.743300 8.957591 -1.855454 5.356631 17.848224 15.080657 -25.828413 3.169220 -1.485817 40.192520 -0.945756 8.813356 -32.975672 178.241700 0.000000 -25.667800 0.392348 -0.089419 -9.177047 -0.993407 -0.654045 -5.170584 -8.582980 -0.639523 -3.278628 11.551374 -2.514375 -5.779351 -3.901649 -0.316858 0.464142 0.000000 0.000000 0.000000 0.151473 10.921145 0.892656 -67.460678 10.765404 20.452840 179.839091 -81.609538 179.884131 24.817932 -12.489718 -2.920246 -0.431129 0.542713 -0.000000 0.000000 0.000000 0.000000 0.000000 0.000000 0.000000 9.963127 5.189319 -2.454767 83.412859 17.657759 23.513285 -179.698453 65.066300 179.823607 -15.234696 37.727115 -5.566776 0.228310 -1.601640 0.000000 0.000000 0.000000 0.000000 0.000000 0.000000 0.000000 
9.674239 16.181528 2.601301 3.252860 36.055439 24.953865 -11.011544 0.692897 2.494115 1.927510 -1.344688 -45.025961 2.299871 3.686214 79.837530 2.420417 13.845294 1.560447 1.965700 0.000000 -28.894200 9.139493 -1.955701 5.195007 17.138767 14.165878 -24.410698 3.212436 -1.287750 37.838500 -0.647720 9.499778 -31.088693 178.065600 0.000000 -25.289500 -0.104799 0.341832 -9.229004 -1.147139 -0.177584 -5.231949 -8.571549 -0.151929 -3.402810 11.447366 -2.109808 -5.762578 -3.937676 -0.319840 0.456070 0.000000 0.000000 0.000000 0.451639 11.392755 0.914957 -66.535220 11.815818 20.560495 179.865919 -80.923601 179.888609 24.697351 -12.880915 -2.993692 -0.430363 0.541461 -0.000000 0.000000 0.000000 0.000000 0.000000 0.000000 0.000000 10.120151 5.962456 -2.343944 83.785273 18.672377 24.791892 -179.756831 65.334183 179.829556 -15.075545 38.046373 -5.561435 0.233933 -1.621791 -0.000000 0.000000 0.000000 0.000000 0.000000 0.000000 0.000000 
9.823152 16.311011 2.741994 3.348017 35.620233 25.245034 -10.784649 0.521030 2.755526 1.907712 -2.008558 -45.699570 2.074754 3.449679 77.039801 2.513850 14.547866 0.898435 1.990400 0.000000 -28.262500 9.286936 -2.079193 5.080987 16.525558 13.305760 -22.973919 3.237276 -1.080176 35.272147 -0.354883 10.031868 -28.860532 178.016700 0.000000 -25.336600 -0.531598 0.770490 -9.352382 -1.282585 0.285618 -5.296782 -8.545944 0.322800 -3.470805 11.343610 -1.827821 -5.801862 -3.956375 -0.321281 0.435429 0.000000 0.000000 0.000000 0.744392 11.933129 0.913740 -65.667133 12.781288 20.677208 179.890809 -80.270958 179.893162 24.564625 -13.283820 -3.067621 -0.430273 0.540942 -0.000000 0.000000 0.000000 0.000000 0.000000 0.000000 0.000000 10.202307 6.601099 -2.233036 84.112529 19.612688 26.160943 -179.831889 65.583884 179.837436 -14.799542 38.336835 -5.507093 0.238536 -1.641196 -0.000000 0.000000 0.000000 0.000000 0.000000 0.000000 0.000000 
9.974709 16.450011 2.889533 3.436277 35.221170 25.499284 -10.555197 0.381302 2.998108 1.823059 -2.532101 -46.182135 1.837051 3.196262 73.865719 2.598652 15.131950 0.382823 2.021700 0.000000 -27.809900 9.440434 -2.217319 4.982932 15.919022 12.433157 -21.453024 3.237199 -0.872425 32.517477 -0.057824 10.472127 -26.260813 178.071400 -0.000000 -25.659600 -0.970890 1.177070 -9.484525 -1.417285 0.728599 -5.354805 -8.518231 0.778090 -3.493648 11.268279 -1.634898 -5.877263 -3.967287 -0.321946 0.406248 0.000000 0.000000 0.000000 1.049817 12.533346 0.897342 -64.832184 13.663562 20.764585 179.915356 -79.648234 179.897785 24.431597 -13.678483 -3.138847 -0.430834 0.540479 -0.000000 0.000000 0.000000 0.000000 0.000000 0.000000 0.000000 10.285123 7.133784 -2.117362 84.413023 20.478032 27.595529 -179.920936 65.833640 179.847129 -14.435703 38.592438 -5.412946 0.242873 -1.659644 -0.000000 0.000000 0.000000 0.000000 0.000000 0.000000 0.000000 
10.128325 16.596952 3.043337 3.533142 34.862434 25.713630 -10.325629 0.279382 3.219230 1.658405 -2.940288 -46.445660 1.590991 2.928092 70.312633 2.664438 15.543986 0.035512 2.063700 -0.000001 -27.514599 9.605296 -2.368656 4.892916 15.311186 11.541775 -19.847603 3.209944 -0.672348 29.601381 0.239822 10.844105 -23.269709 178.229700 -0.000001 -26.173700 -1.423418 1.551948 -9.610583 -1.551377 1.142833 -5.409512 -8.491672 1.204341 -3.501272 11.217784 -1.503408 -5.956662 -3.974265 -0.322473 0.377652 0.000000 0.000000 0.000000 1.344403 13.096251 0.868397 -64.020737 14.602866 20.731681 179.937259 -78.978369 179.902406 24.285770 -14.053219 -3.203081 -0.431242 0.539780 -0.000000 0.000000 0.000000 0.000000 0.000000 0.000000 0.000000 10.381748 7.583283 -1.989952 84.704436 21.257736 29.077383 179.980619 66.102427 179.858116 -14.030493 38.807336 -5.295398 0.247587 -1.676545 -0.000000 0.000000 0.000000 0.000000 0.000000 0.000000 0.000000 
